<?xml version="1.0" encoding="UTF-8"?>
<svg id="Layer_2" data-name="Layer 2" xmlns="http://www.w3.org/2000/svg" viewBox="0 0 511.8 72.1">
  <defs>
    <style>
      .cls-1 {
        fill: #016696;
      }

      .cls-2 {
        letter-spacing: 0em;
      }

      .cls-3 {
        letter-spacing: -.11em;
      }

      .cls-4, .cls-5 {
        fill: #f8a918;
      }

      .cls-6 {
        letter-spacing: 0em;
      }

      .cls-7 {
        letter-spacing: -.02em;
      }

      .cls-8 {
        letter-spacing: 0em;
      }

      .cls-9 {
        letter-spacing: 0em;
      }

      .cls-5 {
        font-family: Beckan-Regular, Beckan;
        font-size: 59.3px;
      }

      .cls-10 {
        letter-spacing: -.09em;
      }
    </style>
  </defs>
  <g id="Our_Style" data-name="Our Style">
    <g>
      <path class="cls-1" d="M21.01,6.59h0s2.54,3.85,2.54,3.85l.02.04,20.27,50.1,1.48,3.28c.5,1.11-.25,2.37-1.53,2.55-.77.11-1.5.21-1.8.24-1.3.12-2.61.17-3.91.17-.66,0-1.33-.02-1.99-.05-1.86-.09-3.74-.29-5.58-.62-.76-.13-3.33-.76-3.33-.76,0,0,.98-1.6,1.19-2.26l.85-2.73c-3.29-.86-6.38-2.18-9.19-3.92l-1.96,2.39c-.45.55-1.7,2.19-1.7,2.19,0,0-1.73-1.3-2.33-1.73-1.48-1.05-2.87-2.2-4.15-3.43-1.29-1.24-2.49-2.59-3.56-3.99-.43-.56-1.46-2.37-1.46-2.37,0,0,1.71-.76,2.38-1.09l3.15-1.58c-1.56-2.59-2.63-5.38-3.18-8.29,0-.03,0-.05-.01-.08l-3.78.55c-.76.11-2.7.45-2.7.45,0,0-.44-1.91-.52-2.58C0,35.18-.05,33.44.05,31.74c.1-1.63.34-3.26.71-4.86.15-.66.76-2.38.76-2.38,0,0,1.95.33,2.7.51l4.01.94c.99-2.76,2.46-5.35,4.39-7.72l-3.51-2.19c-.63-.39-2.31-1.35-2.31-1.35,0,0,1.29-1.65,1.77-2.17,1.2-1.29,2.52-2.51,3.92-3.62,1.16-.92,2.39-1.78,3.67-2.57.57-.35,1.27-.46,1.94-.33l2.92.59Z"/>
      <path class="cls-4" d="M38.17.04c-3.98.14-9.6.99-13.8,2.94-1.42.66-2.07,1.44-2.04,1.69.21,1.42,3.38,4.71,3.38,4.71,8.75-3.88,23.7-2.48,24.01,5.92.42,11.33-17.02,10.18-7.75,34.8.69,1.84,4.49,10.67,5.81,14.18.15.39.9.37.84-.04-1.4-9.79-5.46-21.38,1.25-28.13,2.25-2.26,5.52-4.12,9.03-6.03,8.15-4.44,9.1-14.69,6.17-19.69C61.03,3.44,50.88-.42,38.17.04Z"/>
    </g>
  </g>
  <g id="Dimensions">
    <text class="cls-5" transform="translate(78.6 56.33)"><tspan class="cls-10" x="0" y="0">P</tspan><tspan x="33.62" y="0">a</tspan><tspan class="cls-3" x="63.51" y="0">r</tspan><tspan x="80.29" y="0">adigm </tspan><tspan class="cls-7" x="250.55" y="0">S</tspan><tspan class="cls-9" x="284.11" y="0">t</tspan><tspan class="cls-2" x="300.48" y="0">udi</tspan><tspan class="cls-6" x="377.51" y="0">o</tspan><tspan class="cls-8" x="408.47" y="0">s</tspan></text>
  </g>
</svg>